<svg id="Calque_1" data-name="Calque 1" xmlns="http://www.w3.org/2000/svg" viewBox="0 0 115.44 114.37"><defs><style>.cls-1{fill:#fff;}</style></defs><path class="cls-1" d="M479,334.75V226.45l13.43,3.06c5.42,1.24,10.84,2.46,16.25,3.75,4,1,6.16,3.53,6.16,7.63q0,47.75,0,95.47c0,3.34-1.93,4.74-5.2,4.13-9.29-1.75-18.6-3.45-27.9-5.17C480.86,335.15,480,335,479,334.75Z" transform="translate(-399.42 -226.45)"/><path class="cls-1" d="M471.26,227.78V334.9l-35.52,5.92c-.07-1.11-.16-2-.16-2.84q0-50,0-100c0-1.51,0-2.57,2-3,10.71-2.28,21.39-4.75,32.08-7.14A10.93,10.93,0,0,1,471.26,227.78Z" transform="translate(-399.42 -226.45)"/><path class="cls-1" d="M428,340.81l-16.09-7.35c-3.24-1.49-6.45-3-9.72-4.47a4.19,4.19,0,0,1-2.74-4.28q0-46.59,0-93.19c0-3.34,2.12-4.86,5.28-3.82,7.17,2.35,14.3,4.84,21.49,7.12,1.91.61,1.75,1.87,1.75,3.29v102.7Z" transform="translate(-399.42 -226.45)"/></svg>